<?xml version="1.0" encoding="utf-8"?>
<!-- Generator: Adobe Illustrator 16.0.0, SVG Export Plug-In . SVG Version: 6.00 Build 0)  -->
<!DOCTYPE svg PUBLIC "-//W3C//DTD SVG 1.1//EN" "http://www.w3.org/Graphics/SVG/1.1/DTD/svg11.dtd">
<svg version="1.1" id="Logo" xmlns="http://www.w3.org/2000/svg" xmlns:xlink="http://www.w3.org/1999/xlink" x="0px" y="0px"
	 width="499.997px" height="157.551px" viewBox="0 0 499.997 157.551" enable-background="new 0 0 499.997 157.551"
	 xml:space="preserve">
<g>
	<path fill="#0077AE" d="M0.182,97.861h27.345c12.514,0,25.29,2.729,25.29,16.285c0,5.144-2.83,10.207-8.488,11.845v0.469
		c7.03,2.262,11.489,6.937,11.489,13.951c0,12.077-12.345,16.207-23.661,16.207H0.182V97.861 M24.1,120.459
		c3.427,0,7.287-0.311,7.287-4.363c0-4.364-4.373-4.051-7.8-4.051h-1.628v8.414H24.1z M21.958,142.59h2.657
		c3.856,0,9.428-0.074,9.428-4.907c0-4.911-6-4.834-9.773-4.834h-2.312V142.59z"/>
	<polyline fill="#0077AE" points="59.577,97.861 106.985,97.861 106.985,113.915 85.388,113.915 85.388,119.523 105.118,119.523 
		105.118,134.795 85.388,134.795 85.388,140.564 107.735,140.564 107.735,156.618 59.577,156.618 59.577,97.861 	"/>
	<path fill="#0077AE" d="M140.306,97.861l8.837,15.353h0.845c0.839-1.871,1.576-3.741,2.628-5.533l5.68-9.818H190.7l-27.144,33.432
		v25.326H135.36v-25.326l-27.668-33.432L140.306,97.861"/>
	<path fill="#0077AE" d="M272.243,127.392c0,18.862-21.127,30.159-47.115,30.159c-25.987,0-47.117-11.297-47.117-30.159
		c0-18.468,21.24-30.47,47.117-30.47C251.002,96.922,272.243,108.924,272.243,127.392 M209.197,127.706
		c0,6.705,6.552,11.301,15.931,11.301c9.378,0,15.932-4.596,15.932-11.301c0-6.229-6.103-11.457-15.932-11.457
		C215.297,116.249,209.197,121.475,209.197,127.706z"/>
	<path fill="#0077AE" d="M372.711,97.861h48.914c44.357,0,78.371,8.647,78.371,30.236c0,17.459-27.703,28.521-66.451,28.521h-60.834
		V97.861 M420.745,139.006h2.982c15.955,0,28.229-3.272,28.229-10.99c0-8.26-10.695-11.77-28.229-11.77h-2.982V139.006z"/>
	<path fill="#0077AE" d="M489.075,105.282c0-2.674,2.133-4.808,4.828-4.808c2.697,0,4.826,2.134,4.826,4.808
		s-2.129,4.801-4.826,4.801C491.208,110.083,489.075,107.956,489.075,105.282 M497.991,105.282c0-2.271-1.881-4.066-4.088-4.066
		s-4.092,1.797-4.092,4.066c0,2.264,1.885,4.061,4.092,4.061S497.991,107.545,497.991,105.282z M496.194,107.877h-0.885
		l-1.582-2.426h-0.887v2.426h-0.736v-5.256h2.289c0.949,0,1.873,0.254,1.873,1.389c0,1.037-0.727,1.414-1.658,1.441L496.194,107.877
		z M493.729,104.713c0.654,0,1.801,0.121,1.801-0.715c0-0.541-0.719-0.641-1.279-0.641h-1.408v1.355H493.729L493.729,104.713z"/>
	<polyline fill="#0077AE" points="307.856,97.904 276.09,97.904 276.09,156.663 307.733,156.663 307.733,126.765 335.756,156.663 
		367.401,156.663 367.401,97.904 335.756,97.904 335.756,128.354 307.856,97.904 	"/>
	<path fill="#0077AE" d="M9.71,11.909h2.692c9.101,0,16.553,1.858,16.553,12.799c0,11.145-7.554,13.005-16.762,13.005H9.71V11.909
		 M9.71,45.452h6c8.664,0,19.821,2.277,19.821,13.232c0,11.059-9.4,13.741-18.384,13.741H9.71V45.452z M0,81.095h18.18
		c13.738,0,27.06-6.192,27.06-21.792c0-9.094-6.404-18.083-15.595-19.732v-0.205c5.26-2.478,8.336-9.084,8.336-14.759
		c0-17.546-13.789-21.366-28.48-21.366H0V81.095z"/>
	<polyline fill="#0077AE" points="50.866,3.247 92.672,3.247 92.672,12.137 60.579,12.137 60.579,33.973 91.744,33.973 
		91.744,42.862 60.579,42.862 60.579,72.199 92.672,72.199 92.672,81.088 50.866,81.088 50.866,3.247 	"/>
	<path fill="#0077AE" d="M111.457,12.137h3.404c19.82,0,36.957,7.33,36.957,30.033c0,22.602-17.137,30.029-36.957,30.029h-3.404
		V12.137 M101.744,81.088h15.799c24.568,0,43.983-12.812,43.983-39.331c0-25.902-19.828-38.511-43.67-38.511h-16.112V81.088z"/>
	<path fill="#0077AE" d="M198.549,11.909h2.687c9.101,0,16.554,1.858,16.554,12.799c0,11.145-7.553,13.005-16.76,13.005h-2.481
		V11.909 M198.549,45.452h6c8.665,0,19.816,2.277,19.816,13.232c0,11.059-9.4,13.741-18.382,13.741h-7.434V45.452L198.549,45.452z
		 M188.835,81.095h18.181c13.736,0,27.061-6.192,27.061-21.792c0-9.094-6.403-18.083-15.596-19.732v-0.205
		c5.26-2.478,8.338-9.084,8.338-14.759c0-17.546-13.791-21.366-28.479-21.366h-9.504L188.835,81.095L188.835,81.095z"/>
	<path fill="#0077AE" d="M284.554,52.732h-27.665l13.83-31.474L284.554,52.732 M288.579,61.624l8.875,19.477h10.428L270.719,0
		l-37.158,81.101h10.424l8.879-19.477H288.579z"/>
	<polyline fill="#0077AE" points="324.977,81.101 315.266,81.101 315.266,12.137 296.795,12.137 296.795,3.247 343.448,3.247 
		343.448,12.137 324.977,12.137 324.977,81.101 	"/>
	<polyline fill="#0077AE" points="395.481,34.666 395.481,3.236 405.192,3.236 405.192,81.101 395.481,81.101 395.481,43.695 
		358.407,43.695 358.407,81.101 348.696,81.101 348.696,3.236 358.407,3.236 358.407,34.666 395.481,34.666 	"/>
	<path fill="#0077AE" d="M454.694,42.682l17.215,21.069c-4.822,4.849-10.604,10.318-17.832,10.318
		c-7.432,0-14.457-6.915-14.457-14.344c0-7.439,8.775-12.707,14.145-16.426L454.694,42.682 M456.721,30.493l-2.588-3.304
		c-2.281-2.892-4.662-5.782-4.662-9.709c0-4.958,4.041-8.263,8.703-8.263c5.186,0,9.119,2.999,9.119,8.47
		c0,5.68-5.387,8.882-9.324,11.98L456.721,30.493z M486.127,81.101h11.969l-13.928-17.246l9.492-11.157l-6.189-6.404l-9.082,10.536
		l-16.172-19.622c6.516-4.752,14.105-10.639,14.105-19.419c0-10.219-8.414-16.194-17.941-16.194
		c-10.248,0-17.938,6.283-17.938,17.022c0,6.606,4.102,12.393,8.518,17.041l-4.824,3.511c-7.391,5.386-13.543,10.753-13.543,20.661
		c0,13.416,10.781,22.906,23.785,22.906c9.186,0,17.438-5.262,23.322-12.174L486.127,81.101z"/>
</g>
</svg>
