<?xml version="1.0" encoding="utf-8"?>
<!-- Generator: Adobe Illustrator 18.0.0, SVG Export Plug-In . SVG Version: 6.00 Build 0)  -->
<!DOCTYPE svg PUBLIC "-//W3C//DTD SVG 1.1//EN" "http://www.w3.org/Graphics/SVG/1.1/DTD/svg11.dtd">
<svg version="1.1" id="Logo" xmlns="http://www.w3.org/2000/svg" xmlns:xlink="http://www.w3.org/1999/xlink" x="0px" y="0px"
	 viewBox="0 0 500 157.6" enable-background="new 0 0 500 157.6" xml:space="preserve">
<g>
	<path d="M0.2,97.9h27.3c12.5,0,25.3,2.7,25.3,16.3c0,5.1-2.8,10.2-8.5,11.8v0.5c7,2.3,11.5,6.9,11.5,14c0,12.1-12.3,16.2-23.7,16.2
		h-32V97.9 M24.1,120.5c3.4,0,7.3-0.3,7.3-4.4c0-4.4-4.4-4.1-7.8-4.1H22v8.4H24.1z M22,142.6h2.7c3.9,0,9.4-0.1,9.4-4.9
		c0-4.9-6-4.8-9.8-4.8H22V142.6z"/>
	<polyline points="59.6,97.9 107,97.9 107,113.9 85.4,113.9 85.4,119.5 105.1,119.5 105.1,134.8 85.4,134.8 85.4,140.6 107.7,140.6 
		107.7,156.6 59.6,156.6 59.6,97.9 	"/>
	<path d="M140.3,97.9l8.8,15.4h0.8c0.8-1.9,1.6-3.7,2.6-5.5l5.7-9.8h32.4l-27.1,33.4v25.3h-28.2v-25.3l-27.7-33.4L140.3,97.9"/>
	<path d="M272.2,127.4c0,18.9-21.1,30.2-47.1,30.2c-26,0-47.1-11.3-47.1-30.2c0-18.5,21.2-30.5,47.1-30.5
		C251,96.9,272.2,108.9,272.2,127.4 M209.2,127.7c0,6.7,6.6,11.3,15.9,11.3c9.4,0,15.9-4.6,15.9-11.3c0-6.2-6.1-11.5-15.9-11.5
		C215.3,116.2,209.2,121.5,209.2,127.7z"/>
	<path d="M372.7,97.9h48.9c44.4,0,78.4,8.6,78.4,30.2c0,17.5-27.7,28.5-66.5,28.5h-60.8V97.9 M420.7,139h3c16,0,28.2-3.3,28.2-11
		c0-8.3-10.7-11.8-28.2-11.8h-3V139z"/>
	<path d="M489.1,105.3c0-2.7,2.1-4.8,4.8-4.8c2.7,0,4.8,2.1,4.8,4.8s-2.1,4.8-4.8,4.8C491.2,110.1,489.1,108,489.1,105.3 M498,105.3
		c0-2.3-1.9-4.1-4.1-4.1s-4.1,1.8-4.1,4.1c0,2.3,1.9,4.1,4.1,4.1S498,107.5,498,105.3z M496.2,107.9h-0.9l-1.6-2.4h-0.9v2.4h-0.7
		v-5.3h2.3c0.9,0,1.9,0.3,1.9,1.4c0,1-0.7,1.4-1.7,1.4L496.2,107.9z M493.7,104.7c0.7,0,1.8,0.1,1.8-0.7c0-0.5-0.7-0.6-1.3-0.6h-1.4
		v1.4L493.7,104.7L493.7,104.7z"/>
	<polyline points="307.9,97.9 276.1,97.9 276.1,156.7 307.7,156.7 307.7,126.8 335.8,156.7 367.4,156.7 367.4,97.9 335.8,97.9 
		335.8,128.4 307.9,97.9 	"/>
	<path d="M9.7,11.9h2.7c9.1,0,16.6,1.9,16.6,12.8c0,11.1-7.6,13-16.8,13H9.7V11.9 M9.7,45.5h6c8.7,0,19.8,2.3,19.8,13.2
		c0,11.1-9.4,13.7-18.4,13.7H9.7V45.5z M0,81.1h18.2c13.7,0,27.1-6.2,27.1-21.8c0-9.1-6.4-18.1-15.6-19.7v-0.2
		c5.3-2.5,8.3-9.1,8.3-14.8C38,7.1,24.2,3.2,9.5,3.2H0V81.1z"/>
	<polyline points="50.9,3.2 92.7,3.2 92.7,12.1 60.6,12.1 60.6,34 91.7,34 91.7,42.9 60.6,42.9 60.6,72.2 92.7,72.2 92.7,81.1 
		50.9,81.1 50.9,3.2 	"/>
	<path d="M111.5,12.1h3.4c19.8,0,37,7.3,37,30c0,22.6-17.1,30-37,30h-3.4L111.5,12.1 M101.7,81.1h15.8c24.6,0,44-12.8,44-39.3
		c0-25.9-19.8-38.5-43.7-38.5h-16.1V81.1z"/>
	<path d="M198.5,11.9h2.7c9.1,0,16.6,1.9,16.6,12.8c0,11.1-7.6,13-16.8,13h-2.5V11.9 M198.5,45.5h6c8.7,0,19.8,2.3,19.8,13.2
		c0,11.1-9.4,13.7-18.4,13.7h-7.4L198.5,45.5L198.5,45.5z M188.8,81.1H207c13.7,0,27.1-6.2,27.1-21.8c0-9.1-6.4-18.1-15.6-19.7v-0.2
		c5.3-2.5,8.3-9.1,8.3-14.8c0-17.5-13.8-21.4-28.5-21.4h-9.5L188.8,81.1L188.8,81.1z"/>
	<path d="M284.6,52.7h-27.7l13.8-31.5L284.6,52.7 M288.6,61.6l8.9,19.5h10.4L270.7,0l-37.2,81.1H244l8.9-19.5H288.6z"/>
	<polyline points="325,81.1 315.3,81.1 315.3,12.1 296.8,12.1 296.8,3.2 343.4,3.2 343.4,12.1 325,12.1 325,81.1 	"/>
	<polyline points="395.5,34.7 395.5,3.2 405.2,3.2 405.2,81.1 395.5,81.1 395.5,43.7 358.4,43.7 358.4,81.1 348.7,81.1 348.7,3.2 
		358.4,3.2 358.4,34.7 395.5,34.7 	"/>
	<path d="M454.7,42.7l17.2,21.1c-4.8,4.8-10.6,10.3-17.8,10.3c-7.4,0-14.5-6.9-14.5-14.3c0-7.4,8.8-12.7,14.1-16.4L454.7,42.7
		 M456.7,30.5l-2.6-3.3c-2.3-2.9-4.7-5.8-4.7-9.7c0-5,4-8.3,8.7-8.3c5.2,0,9.1,3,9.1,8.5c0,5.7-5.4,8.9-9.3,12L456.7,30.5z
		 M486.1,81.1h12l-13.9-17.2l9.5-11.2l-6.2-6.4l-9.1,10.5l-16.2-19.6c6.5-4.8,14.1-10.6,14.1-19.4c0-10.2-8.4-16.2-17.9-16.2
		c-10.2,0-17.9,6.3-17.9,17c0,6.6,4.1,12.4,8.5,17l-4.8,3.5c-7.4,5.4-13.5,10.8-13.5,20.7c0,13.4,10.8,22.9,23.8,22.9
		c9.2,0,17.4-5.3,23.3-12.2L486.1,81.1z"/>
</g>
</svg>
